<svg xmlns="http://www.w3.org/2000/svg" version="1.1" xmlns:xlink="http://www.w3.org/1999/xlink" xmlns:svgjs="http://svgjs.dev/svgjs" width="1000" height="181" viewBox="0 0 1000 181"><g transform="matrix(1,0,0,1,-0.606037108088401,0.35392548028744386)"><svg viewBox="0 0 396 72" data-background-color="#172554" preserveAspectRatio="xMidYMid meet" height="181" width="1000" xmlns="http://www.w3.org/2000/svg" xmlns:xlink="http://www.w3.org/1999/xlink"><g id="tight-bounds" transform="matrix(1,0,0,1,0.23999069480299795,-0.14078803635743498)"><svg viewBox="0 0 395.52 72.28157607271487" height="72.28157607271487" width="395.52"><g><svg viewBox="0 0 533.195925630455 97.44195454115938" height="72.28157607271487" width="395.52"><g transform="matrix(1,0,0,1,137.67592563045505,13.467013977830277)"><svg viewBox="0 0 395.52 70.50792658549882" height="70.50792658549882" width="395.52"><g id="textblocktransform"><svg viewBox="0 0 395.52 70.50792658549882" height="70.50792658549882" width="395.52" id="textblock"><g><svg viewBox="0 0 395.52 70.50792658549882" height="70.50792658549882" width="395.52"><g transform="matrix(1,0,0,1,0,0)"><svg width="395.52" viewBox="2.200000047683716 -37.5 268.66998291015625 47.900001525878906" height="70.50792658549882" data-palette-color="#ffffff"><path d="M19.78-11.84L26.95-11.84Q26.68-5.76 23.54-2.64 20.39 0.49 14.65 0.49L14.65 0.49Q8.62 0.49 5.41-3.48 2.2-7.45 2.2-14.79L2.2-14.79 2.2-20.78Q2.2-28.1 5.52-32.07 8.84-36.04 14.75-36.04L14.75-36.04Q20.56-36.04 23.57-32.79 26.59-29.54 27-23.46L27-23.46 19.8-23.46Q19.7-27.22 18.64-28.65 17.58-30.08 14.75-30.08L14.75-30.08Q11.87-30.08 10.67-28.06 9.47-26.05 9.4-21.44L9.4-21.44 9.4-14.72Q9.4-9.42 10.58-7.45 11.77-5.47 14.65-5.47L14.65-5.47Q17.48-5.47 18.55-6.85 19.63-8.23 19.78-11.84L19.78-11.84ZM37.77-37.5L37.77-24.1Q40.01-26.9 43.28-26.9L43.28-26.9Q46.9-26.9 48.78-24.37 50.66-21.83 50.68-16.8L50.68-16.8 50.68 0 43.75 0 43.75-16.72Q43.75-19.04 43.03-20.08 42.31-21.12 40.7-21.12L40.7-21.12Q38.82-21.12 37.77-19.38L37.77-19.38 37.77 0 30.86 0 30.86-37.5 37.77-37.5ZM75.14 0L68.18 0Q67.89-0.61 67.6-2.05L67.6-2.05Q65.74 0.49 62.57 0.49L62.57 0.49Q59.25 0.49 57.06-1.71 54.88-3.91 54.88-7.4L54.88-7.4Q54.88-11.55 57.53-13.82 60.18-16.09 65.16-16.14L65.16-16.14 67.26-16.14 67.26-18.26Q67.26-20.04 66.65-20.78 66.04-21.51 64.86-21.51L64.86-21.51Q62.28-21.51 62.28-18.48L62.28-18.48 55.37-18.48Q55.37-22.14 58.11-24.52 60.86-26.9 65.06-26.9L65.06-26.9Q69.4-26.9 71.78-24.65 74.16-22.39 74.16-18.19L74.16-18.19 74.16-5.76Q74.21-2.34 75.14-0.42L75.14-0.42 75.14 0ZM64.11-4.93L64.11-4.93Q65.25-4.93 66.06-5.4 66.87-5.86 67.26-6.49L67.26-6.49 67.26-11.99 65.6-11.99Q63.84-11.99 62.82-10.86 61.81-9.74 61.81-7.86L61.81-7.86Q61.81-4.93 64.11-4.93ZM79-26.42L85.49-26.42 85.69-23.8Q88.03-26.9 91.81-26.9L91.81-26.9Q98.63-26.9 98.82-17.36L98.82-17.36 98.82 0 91.89 0 91.89-16.85Q91.89-19.09 91.22-20.1 90.54-21.12 88.86-21.12L88.86-21.12Q86.98-21.12 85.93-19.19L85.93-19.19 85.93 0 79 0 79-26.42ZM102.94-12.06L102.94-14.01Q102.94-20.51 105.29-23.71 107.63-26.9 111.86-26.9L111.86-26.9Q115.44-26.9 117.4-24.07L117.4-24.07 117.67-26.42 123.89-26.42 123.89 0Q123.89 5.05 121.06 7.73 118.23 10.4 112.93 10.4L112.93 10.4Q110.76 10.4 108.36 9.53 105.97 8.67 104.8 7.32L104.8 7.32 107.12 2.54Q108.1 3.56 109.66 4.21 111.22 4.86 112.61 4.86L112.61 4.86Q114.93 4.86 115.94 3.75 116.96 2.64 116.98 0.17L116.98 0.17 116.98-2.1Q115 0.49 111.83 0.49L111.83 0.49Q107.61 0.49 105.3-2.8 102.99-6.08 102.94-12.06L102.94-12.06ZM109.85-14.01L109.85-12.28Q109.85-8.62 110.81-6.95 111.76-5.27 113.83-5.27L113.83-5.27Q115.96-5.27 116.98-6.81L116.98-6.81 116.98-19.43Q115.91-21.12 113.88-21.12L113.88-21.12Q111.83-21.12 110.84-19.43 109.85-17.75 109.85-14.01L109.85-14.01ZM139.59 0.49L139.59 0.49Q134.26 0.49 131.29-2.69 128.31-5.86 128.31-11.77L128.31-11.77 128.31-13.87Q128.31-20.12 131.04-23.51 133.78-26.9 138.88-26.9L138.88-26.9Q143.86-26.9 146.37-23.72 148.89-20.53 148.94-14.28L148.94-14.28 148.94-10.89 135.19-10.89Q135.34-7.96 136.49-6.6 137.63-5.25 140.03-5.25L140.03-5.25Q143.49-5.25 145.81-7.62L145.81-7.62 148.52-3.44Q147.25-1.68 144.84-0.6 142.42 0.49 139.59 0.49ZM135.24-15.72L135.24-15.72 142.15-15.72 142.15-16.36Q142.1-18.73 141.37-19.95 140.64-21.17 138.83-21.17 137.02-21.17 136.21-19.87 135.39-18.58 135.24-15.72ZM176.67-12.5L171.88-12.5 171.88 0 164.7 0 164.7-35.55 176.81-35.55Q182.09-35.55 185.22-32.28 188.36-29 188.36-23.78 188.36-18.55 185.26-15.53 182.16-12.5 176.67-12.5L176.67-12.5ZM171.88-29.57L171.88-18.48 176.81-18.48Q178.86-18.48 179.99-19.82 181.11-21.17 181.11-23.73L181.11-23.73Q181.11-26.39 179.96-27.97 178.82-29.54 176.89-29.57L176.89-29.57 171.88-29.57ZM212.04 0L205.08 0Q204.79-0.61 204.5-2.05L204.5-2.05Q202.64 0.49 199.47 0.49L199.47 0.49Q196.15 0.49 193.96-1.71 191.78-3.91 191.78-7.4L191.78-7.4Q191.78-11.55 194.43-13.82 197.07-16.09 202.06-16.14L202.06-16.14 204.15-16.14 204.15-18.26Q204.15-20.04 203.54-20.78 202.93-21.51 201.76-21.51L201.76-21.51Q199.17-21.51 199.17-18.48L199.17-18.48 192.27-18.48Q192.27-22.14 195.01-24.52 197.76-26.9 201.96-26.9L201.96-26.9Q206.3-26.9 208.68-24.65 211.06-22.39 211.06-18.19L211.06-18.19 211.06-5.76Q211.11-2.34 212.04-0.42L212.04-0.42 212.04 0ZM201.01-4.93L201.01-4.93Q202.15-4.93 202.96-5.4 203.76-5.86 204.15-6.49L204.15-6.49 204.15-11.99 202.49-11.99Q200.74-11.99 199.72-10.86 198.71-9.74 198.71-7.86L198.71-7.86Q198.71-4.93 201.01-4.93ZM223.32-26.42L223.32 0 216.38 0 216.38-26.42 223.32-26.42ZM216.07-33.25L216.07-33.25Q216.07-34.86 217.09-35.89 218.12-36.91 219.83-36.91 221.54-36.91 222.56-35.89 223.59-34.86 223.59-33.25L223.59-33.25Q223.59-31.67 222.57-30.62 221.56-29.57 219.83-29.57 218.09-29.57 217.08-30.62 216.07-31.67 216.07-33.25ZM240.36-7.08L240.36-7.08Q240.36-7.96 239.51-8.7 238.67-9.45 235.77-10.72L235.77-10.72Q231.49-12.45 229.89-14.31 228.3-16.16 228.3-18.92L228.3-18.92Q228.3-22.39 230.8-24.65 233.3-26.9 237.43-26.9L237.43-26.9Q241.77-26.9 244.38-24.66 247-22.41 247-18.63L247-18.63 240.09-18.63Q240.09-21.85 237.4-21.85L237.4-21.85Q236.3-21.85 235.6-21.17 234.89-20.48 234.89-19.26L234.89-19.26Q234.89-18.38 235.67-17.71 236.45-17.04 239.35-15.8L239.35-15.8Q243.58-14.23 245.32-12.32 247.07-10.4 247.07-7.35L247.07-7.35Q247.07-3.81 244.41-1.66 241.75 0.49 237.43 0.49L237.43 0.49Q234.52 0.49 232.3-0.65 230.08-1.78 228.82-3.81 227.56-5.83 227.56-8.18L227.56-8.18 234.13-8.18Q234.18-6.37 234.97-5.47 235.77-4.57 237.57-4.57L237.57-4.57Q240.36-4.57 240.36-7.08ZM270.87 0L263.91 0Q263.62-0.61 263.33-2.05L263.33-2.05Q261.47 0.49 258.3 0.49L258.3 0.49Q254.98 0.49 252.79-1.71 250.61-3.91 250.61-7.4L250.61-7.4Q250.61-11.55 253.26-13.82 255.91-16.09 260.89-16.14L260.89-16.14 262.99-16.14 262.99-18.26Q262.99-20.04 262.37-20.78 261.76-21.51 260.59-21.51L260.59-21.51Q258-21.51 258-18.48L258-18.48 251.1-18.48Q251.1-22.14 253.84-24.52 256.59-26.9 260.79-26.9L260.79-26.9Q265.13-26.9 267.51-24.65 269.89-22.39 269.89-18.19L269.89-18.19 269.89-5.76Q269.94-2.34 270.87-0.42L270.87-0.42 270.87 0ZM259.84-4.93L259.84-4.93Q260.98-4.93 261.79-5.4 262.59-5.86 262.99-6.49L262.99-6.49 262.99-11.99 261.33-11.99Q259.57-11.99 258.55-10.86 257.54-9.74 257.54-7.86L257.54-7.86Q257.54-4.93 259.84-4.93Z" opacity="1" transform="matrix(1,0,0,1,0,0)" fill="#ffffff" class="wordmark-text-0" data-fill-palette-color="primary" id="text-0"></path></svg></g></svg></g></svg></g></svg></g><g><svg viewBox="0 0 121.03069635385683 97.44195454115938" height="97.44195454115938" width="121.03069635385683"><g><svg xmlns="http://www.w3.org/2000/svg" xmlns:xlink="http://www.w3.org/1999/xlink" version="1.1" x="0" y="0" viewBox="10.136999130249023 17.501998901367188 80.72898864746094 64.99500274658203" enable-background="new 0 0 100 100" xml:space="preserve" height="97.44195454115938" width="121.03069635385683" class="icon-icon-0" data-fill-palette-color="accent" id="icon-0"><g fill="#ffffff" data-fill-palette-color="accent"><g fill="#ffffff" data-fill-palette-color="accent"><path d="M30.609 64.216v6.336c0.974-0.241 1.702-0.485 2.191-1.215 0.488-0.488 0.733-1.221 0.733-1.953 0-0.729-0.245-1.459-0.733-1.947C32.312 64.948 31.583 64.704 30.609 64.216zM25.977 57.15c0 0.729 0.244 1.218 0.732 1.706 0.489 0.488 0.977 0.733 1.951 0.974v-5.362c-0.729 0.244-1.462 0.488-1.951 0.977C26.22 55.934 25.977 56.418 25.977 57.15zM33.285 43.853c-1.185-0.227-2.404-0.351-3.653-0.351-10.721 0-19.495 8.774-19.495 19.496s8.774 19.499 19.495 19.499c10.725 0 19.496-8.777 19.496-19.499 0-0.538-0.028-1.071-0.071-1.599C41.178 58.739 35.104 52.072 33.285 43.853zM36.945 69.822c-0.488 0.974-1.221 1.706-2.194 2.438-0.974 0.488-2.194 0.974-3.653 0.974v1.461c0 0.489 0 0.978-0.245 1.222 0 0.241-0.244 0.485-0.732 0.485-0.244 0-0.489 0-0.733-0.244-0.244-0.241-0.244-0.485-0.244-0.974v-1.95c-1.214-0.244-2.191-0.485-2.924-0.729-0.729-0.488-1.458-0.977-2.191-1.465-0.488-0.488-0.977-1.218-1.221-1.947-0.244-0.732-0.484-1.221-0.484-1.95-0.245-0.244 0-0.732 0.24-0.974 0.244-0.488 0.733-0.488 1.465-0.488 0.488 0 0.732 0 0.974 0.244 0.244 0.244 0.488 0.485 0.729 0.729 0.245 0.729 0.488 1.462 0.733 1.706 0.244 0.488 0.488 0.732 0.976 1.218 0.489 0.244 0.974 0.732 1.462 0.732v-6.824c-1.218-0.244-2.438-0.729-3.171-1.218-0.97-0.488-1.458-0.977-2.191-1.95-0.488-0.729-0.733-1.95-0.733-3.168 0-1.706 0.489-2.927 1.465-4.141 0.973-0.978 2.68-1.71 4.63-1.954v-1.458c0-0.732 0.241-1.221 0.974-1.221 0.732 0 0.976 0.488 0.976 1.221v1.458c0.974 0 1.947 0.244 2.68 0.732 0.732 0.244 1.461 0.732 1.95 1.463 0.484 0.487 0.729 0.973 0.974 1.461 0.244 0.488 0.244 0.977 0.244 1.465 0 0.485-0.244 0.974-0.488 1.215-0.245 0.244-0.729 0.488-1.218 0.488-0.974 0-1.461-0.488-1.95-1.462-0.245-1.218-0.974-1.95-2.192-2.436v6.092c1.218 0.244 2.192 0.729 2.924 0.974 0.733 0.244 1.218 0.732 1.947 1.221 0.488 0.488 0.977 1.218 1.465 1.947 0.244 0.732 0.488 1.465 0.488 2.438C37.678 67.872 37.433 68.849 36.945 69.822zM77.184 53.765c-0.714 0-1.409 0.072-2.095 0.179-2.639 3.185-6.083 5.678-10.012 7.167-1.001 1.897-1.574 4.052-1.574 6.335 0 7.524 6.157 13.684 13.681 13.684 7.526 0 13.682-6.159 13.682-13.684C90.865 59.922 84.71 53.765 77.184 53.765zM82.315 72.234c-0.343 0.684-0.856 1.197-1.54 1.712-0.684 0.343-1.54 0.683-2.563 0.683v1.026c0 0.343 0 0.685-0.172 0.856 0 0.169-0.171 0.341-0.514 0.341-0.171 0-0.343 0-0.515-0.172-0.171-0.169-0.171-0.341-0.171-0.683v-1.369c-0.852-0.171-1.537-0.34-2.052-0.512-0.512-0.343-1.023-0.686-1.537-1.027-0.343-0.343-0.686-0.855-0.856-1.367-0.172-0.514-0.341-0.856-0.341-1.369-0.172-0.171 0-0.514 0.169-0.683 0.172-0.343 0.515-0.343 1.028-0.343 0.343 0 0.514 0 0.683 0.171 0.172 0.172 0.343 0.341 0.512 0.513 0.172 0.512 0.343 1.025 0.515 1.197 0.171 0.343 0.343 0.514 0.685 0.854 0.344 0.171 0.684 0.514 1.026 0.514v-4.789c-0.854-0.171-1.711-0.512-2.226-0.854-0.681-0.343-1.023-0.686-1.537-1.368-0.343-0.512-0.514-1.368-0.514-2.223 0-1.197 0.343-2.055 1.027-2.907 0.684-0.685 1.881-1.199 3.249-1.37v-1.024c0-0.514 0.169-0.856 0.684-0.856 0.514 0 0.685 0.343 0.685 0.856v1.024c0.684 0 1.366 0.171 1.881 0.514 0.514 0.172 1.026 0.514 1.369 1.025 0.34 0.343 0.512 0.684 0.683 1.026 0.172 0.343 0.172 0.686 0.172 1.028 0 0.341-0.172 0.684-0.343 0.853-0.172 0.171-0.512 0.343-0.854 0.343-0.684 0-1.026-0.343-1.369-1.026-0.172-0.854-0.684-1.368-1.538-1.709v4.275c0.854 0.171 1.538 0.512 2.052 0.683 0.515 0.171 0.855 0.514 1.367 0.856 0.343 0.343 0.686 0.854 1.028 1.366 0.171 0.514 0.343 1.028 0.343 1.712C82.83 70.866 82.658 71.552 82.315 72.234zM77.869 68.3v4.447c0.683-0.17 1.195-0.341 1.537-0.853 0.343-0.343 0.515-0.857 0.515-1.371 0-0.512-0.172-1.024-0.515-1.366C79.064 68.813 78.552 68.643 77.869 68.3zM74.618 63.343c0 0.512 0.171 0.854 0.514 1.197s0.686 0.514 1.368 0.683V61.46c-0.511 0.171-1.025 0.343-1.368 0.686S74.618 62.828 74.618 63.343zM52.682 32.349c0 0.793 0.265 1.324 0.796 1.856 0.531 0.531 1.062 0.797 2.121 1.059v-5.833c-0.793 0.266-1.59 0.531-2.121 1.062S52.682 31.552 52.682 32.349zM57.721 40.034v6.892c1.059-0.262 1.852-0.528 2.383-1.321 0.531-0.531 0.797-1.328 0.797-2.125 0-0.793-0.266-1.587-0.797-2.118S58.779 40.565 57.721 40.034zM77.864 38.709c0-11.662-9.541-21.207-21.206-21.207-11.662 0-21.206 9.544-21.206 21.207 0 11.661 9.544 21.209 21.206 21.209C68.323 59.919 77.864 50.371 77.864 38.709zM64.611 46.132c-0.531 1.059-1.327 1.855-2.387 2.653-1.059 0.53-2.386 1.059-3.973 1.059v1.59c0 0.531 0 1.062-0.267 1.328 0 0.262-0.265 0.527-0.796 0.527-0.266 0-0.531 0-0.797-0.266-0.266-0.262-0.266-0.528-0.266-1.059v-2.121c-1.321-0.266-2.384-0.529-3.181-0.794-0.793-0.531-1.586-1.062-2.383-1.593-0.532-0.531-1.062-1.325-1.329-2.118-0.265-0.796-0.527-1.328-0.527-2.122-0.266-0.265 0-0.796 0.262-1.058 0.265-0.531 0.797-0.531 1.594-0.531 0.531 0 0.797 0 1.059 0.265 0.266 0.266 0.531 0.528 0.793 0.794 0.267 0.793 0.531 1.589 0.797 1.855 0.266 0.531 0.531 0.796 1.062 1.324 0.531 0.266 1.06 0.797 1.591 0.797V39.24c-1.325-0.266-2.653-0.793-3.45-1.325-1.055-0.531-1.586-1.062-2.383-2.121-0.531-0.793-0.797-2.122-0.797-3.446 0-1.855 0.532-3.184 1.594-4.505 1.059-1.062 2.914-1.858 5.036-2.125v-1.587c0-0.796 0.262-1.328 1.059-1.328s1.062 0.531 1.062 1.328v1.587c1.06 0 2.118 0.266 2.915 0.796 0.797 0.266 1.59 0.797 2.122 1.591 0.527 0.531 0.793 1.059 1.058 1.59 0.267 0.531 0.267 1.062 0.267 1.593 0 0.528-0.267 1.059-0.531 1.322-0.266 0.265-0.793 0.53-1.325 0.53-1.059 0-1.59-0.53-2.121-1.589-0.266-1.325-1.059-2.122-2.384-2.649v6.626c1.325 0.265 2.384 0.793 3.181 1.059s1.324 0.797 2.118 1.328c0.531 0.531 1.062 1.325 1.594 2.118 0.265 0.796 0.531 1.594 0.531 2.653C65.409 44.011 65.143 45.073 64.611 46.132z" fill="#ffffff" data-fill-palette-color="accent"></path></g></g></svg></g></svg></g></svg></g><defs></defs></svg><rect width="395.52" height="72.28157607271487" fill="none" stroke="none" visibility="hidden"></rect></g></svg></g></svg>